<svg xmlns="http://www.w3.org/2000/svg" xmlns:xlink="http://www.w3.org/1999/xlink" contentStyleType="text/css" height="710px" preserveAspectRatio="none" style="width:971px;height:710px;background:#FFFFFF;" version="1.1" viewBox="0 0 971 710" width="971px" zoomAndPan="magnify"><defs/><g><text fill="#000000" font-family="Arial" font-size="22" font-weight="bold" lengthAdjust="spacing" textLength="676" x="143" y="35.6357">Fachliches Kontextdiagramm: CoffeeToGo &#226;&#8364;&#8220; Kaffee-Bestellprozess</text><text fill="#000000" font-family="Arial" font-size="22" font-weight="bold" lengthAdjust="spacing" textLength="6" x="478" y="60.9336">&#160;</text><!--cluster OT--><g id="cluster_OT"><rect fill="#E8F0FE" height="114" rx="2.5" ry="2.5" style="stroke:#1A73E8;stroke-width:1.0;" width="256" x="12" y="417.5957"/><text fill="#000000" font-family="Arial" font-size="13" font-weight="bold" lengthAdjust="spacing" textLength="94" x="93" y="431.7896">order_terminal</text><text fill="#000000" font-family="Arial" font-size="13" font-weight="bold" lengthAdjust="spacing" textLength="62" x="109" y="446.7383">[ordering]</text></g><!--cluster PC--><g id="cluster_PC"><rect fill="#E8F0FE" height="114" rx="2.5" ry="2.5" style="stroke:#1A73E8;stroke-width:1.0;" width="160" x="507" y="590.5957"/><text fill="#000000" font-family="Arial" font-size="13" font-weight="bold" lengthAdjust="spacing" textLength="99" x="537.5" y="604.7896">process_control</text><text fill="#000000" font-family="Arial" font-size="13" font-weight="bold" lengthAdjust="spacing" textLength="144" x="515" y="619.7383">[kaffee_bestellprozess]</text></g><!--cluster BS--><g id="cluster_BS"><rect fill="#E8F0FE" height="448" rx="2.5" ry="2.5" style="stroke:#1A73E8;stroke-width:1.0;" width="225" x="394" y="83.5957"/><text fill="#000000" font-family="Arial" font-size="13" font-weight="bold" lengthAdjust="spacing" textLength="101" x="456" y="97.7896">brewing_station</text><text fill="#000000" font-family="Arial" font-size="13" font-weight="bold" lengthAdjust="spacing" textLength="60" x="476.5" y="112.7383">[brewing]</text></g><!--cluster DR--><g id="cluster_DR"><rect fill="#E8F0FE" height="114" rx="2.5" ry="2.5" style="stroke:#1A73E8;stroke-width:1.0;" width="108" x="741" y="417.5957"/><text fill="#000000" font-family="Arial" font-size="13" font-weight="bold" lengthAdjust="spacing" textLength="91" x="749.5" y="431.7896">delivery_robot</text><text fill="#000000" font-family="Arial" font-size="13" font-weight="bold" lengthAdjust="spacing" textLength="59" x="765.5" y="446.7383">[delivery]</text></g><!--entity OT_place--><g id="elem_OT_place"><rect fill="#E8F0FE" height="49.8975" rx="2.5" ry="2.5" style="stroke:#1A73E8;stroke-width:1.0;" width="119" x="28.5" y="465.5957"/><text fill="#000000" font-family="Arial" font-size="13" lengthAdjust="spacing" textLength="61" x="38.5" y="487.7896">Bestellung</text><text fill="#000000" font-family="Arial" font-size="13" lengthAdjust="spacing" textLength="99" x="38.5" y="502.7383">entgegennehmen</text></g><!--entity OT_status--><g id="elem_OT_status"><rect fill="#E8F0FE" height="49.8975" rx="2.5" ry="2.5" style="stroke:#1A73E8;stroke-width:1.0;" width="69" x="182.5" y="465.5957"/><text fill="#000000" font-family="Arial" font-size="13" lengthAdjust="spacing" textLength="38" x="192.5" y="487.7896">Status</text><text fill="#000000" font-family="Arial" font-size="13" lengthAdjust="spacing" textLength="49" x="192.5" y="502.7383">abfragen</text></g><!--entity PC_steuer--><g id="elem_PC_steuer"><rect fill="#E8F0FE" height="49.8975" rx="2.5" ry="2.5" style="stroke:#1A73E8;stroke-width:1.0;" width="68" x="553" y="638.5957"/><text fill="#000000" font-family="Arial" font-size="13" lengthAdjust="spacing" textLength="48" x="563" y="660.7896">Prozess</text><text fill="#000000" font-family="Arial" font-size="13" lengthAdjust="spacing" textLength="43" x="563" y="675.7383">steuern</text></g><!--entity BS_grind--><g id="elem_BS_grind"><rect fill="#E8F0FE" height="49.8975" rx="2.5" ry="2.5" style="stroke:#1A73E8;stroke-width:1.0;" width="64" x="492" y="131.5957"/><text fill="#000000" font-family="Arial" font-size="13" lengthAdjust="spacing" textLength="44" x="502" y="153.7896">Bohnen</text><text fill="#000000" font-family="Arial" font-size="13" lengthAdjust="spacing" textLength="42" x="502" y="168.7383">mahlen</text></g><!--entity BS_brew--><g id="elem_BS_brew"><rect fill="#E8F0FE" height="49.8975" rx="2.5" ry="2.5" style="stroke:#1A73E8;stroke-width:1.0;" width="66" x="428" y="281.5957"/><text fill="#000000" font-family="Arial" font-size="13" lengthAdjust="spacing" textLength="36" x="438" y="303.7896">Kaffee</text><text fill="#000000" font-family="Arial" font-size="13" lengthAdjust="spacing" textLength="46" x="438" y="318.7383">bruehen</text></g><!--entity BS_milk--><g id="elem_BS_milk"><rect fill="#E8F0FE" height="49.8975" rx="2.5" ry="2.5" style="stroke:#1A73E8;stroke-width:1.0;" width="104" x="445" y="465.5957"/><text fill="#000000" font-family="Arial" font-size="13" lengthAdjust="spacing" textLength="31" x="455" y="487.7896">Milch</text><text fill="#000000" font-family="Arial" font-size="13" lengthAdjust="spacing" textLength="84" x="455" y="502.7383">aufschaeumen</text></g><!--entity DR_deliver--><g id="elem_DR_deliver"><rect fill="#E8F0FE" height="49.8975" rx="2.5" ry="2.5" style="stroke:#1A73E8;stroke-width:1.0;" width="75" x="757.5" y="465.5957"/><text fill="#000000" font-family="Arial" font-size="13" lengthAdjust="spacing" textLength="36" x="767.5" y="487.7896">Kaffee</text><text fill="#000000" font-family="Arial" font-size="13" lengthAdjust="spacing" textLength="55" x="767.5" y="502.7383">ausliefern</text></g><!--entity Kunde--><g id="elem_Kunde"><ellipse cx="152" cy="277.5957" fill="#FFF3E0" rx="8" ry="8" style="stroke:#E65100;stroke-width:1.0;"/><path d="M152,285.5957 L152,312.5957 M139,293.5957 L165,293.5957 M152,312.5957 L139,327.5957 M152,312.5957 L165,327.5957 " fill="none" style="stroke:#E65100;stroke-width:1.0;"/><text fill="#000000" font-family="Arial" font-size="13" lengthAdjust="spacing" textLength="37" x="133.5" y="341.7896">Kunde</text></g><!--link Kunde to OT_place--><g id="link_Kunde_OT_place"><path d="M133.43,313.2057 C108.55,321.8557 65.4,341.0357 47,374.5957 C30.8,404.1457 47.0294,436.49 64.3094,460.44 " fill="none" id="Kunde-to-OT_place" style="stroke:#5F6368;stroke-width:1.0;"/><polygon fill="#5F6368" points="67.82,465.3057,65.7979,455.6667,64.8945,461.2509,59.3102,460.3475,67.82,465.3057" style="stroke:#5F6368;stroke-width:1.0;"/><text fill="#000000" font-family="Arial" font-size="11" lengthAdjust="spacing" textLength="75" x="91.5" y="385.9136">stellt Bestellung</text><text fill="#000000" font-family="Arial" font-size="11" lengthAdjust="spacing" textLength="162" x="48" y="398.5625">(Sorte, Milchschaum, Zielposition)</text></g><!--link Kunde to OT_status--><g id="link_Kunde_OT_status"><path d="M170.52,320.8957 C185.64,332.9657 205.92,352.2557 215,374.5957 C226.95,404.0057 225.6546,435.3026 222.3246,459.3026 " fill="none" id="Kunde-to-OT_status" style="stroke:#5F6368;stroke-width:1.0;"/><polygon fill="#5F6368" points="221.5,465.2457,226.6989,456.8808,222.1872,460.2931,218.7749,455.7814,221.5,465.2457" style="stroke:#5F6368;stroke-width:1.0;"/><text fill="#000000" font-family="Arial" font-size="11" lengthAdjust="spacing" textLength="72" x="223" y="385.9136">fragt Status ab</text><text fill="#000000" font-family="Arial" font-size="11" lengthAdjust="spacing" textLength="53" x="232.5" y="398.5625">(Bestell-ID)</text></g><!--link OT_place to PC_steuer--><g id="link_OT_place_PC_steuer"><path d="M59.74,515.7157 C42.65,533.1957 26.83,556.7857 42,574.5957 C108.41,652.5857 437.8702,661.6372 546.7902,662.5172 " fill="none" id="OT_place-to-PC_steuer" style="stroke:#5F6368;stroke-width:1.0;"/><polygon fill="#5F6368" points="552.79,662.5657,543.8226,658.4931,547.7902,662.5253,543.758,666.4929,552.79,662.5657" style="stroke:#5F6368;stroke-width:1.0;"/><text fill="#000000" font-family="Arial" font-size="11" lengthAdjust="spacing" textLength="74" x="112.5" y="558.9136">startet Prozess</text><text fill="#000000" font-family="Arial" font-size="11" lengthAdjust="spacing" textLength="213" x="43" y="571.5625">(Bestell-ID, Sorte, Milchschaum, Zielposition)</text></g><!--link PC_steuer to BS_grind--><g id="link_PC_steuer_BS_grind"><path d="M599.2,638.2757 C607.16,620.9957 616.83,596.9757 621,574.5957 C650.62,415.7357 678.57,352.8157 600,211.5957 C590.32,194.1957 577.6344,183.9884 561.6244,175.0184 " fill="none" id="PC_steuer-to-BS_grind" style="stroke:#5F6368;stroke-width:1.0;"/><polygon fill="#5F6368" points="556.39,172.0857,562.2865,179.9744,560.752,174.5296,566.1968,172.9952,556.39,172.0857" style="stroke:#5F6368;stroke-width:1.0;"/><text fill="#000000" font-family="Arial" font-size="11" lengthAdjust="spacing" textLength="65" x="662" y="385.9136">mahlt Bohnen</text><text fill="#000000" font-family="Arial" font-size="11" lengthAdjust="spacing" textLength="85" x="652" y="398.5625">(Bestell-ID, Sorte)</text></g><!--link BS_grind to BS_brew--><g id="link_BS_grind_BS_brew"><path d="M513.74,181.7057 C502.02,209.2257 485.3192,248.4547 473.6092,275.9747 " fill="none" id="BS_grind-to-BS_brew" style="stroke:#5F6368;stroke-width:1.0;"/><polygon fill="#5F6368" points="471.26,281.4957,478.4645,274.7804,473.2177,276.8949,471.1032,271.6481,471.26,281.4957" style="stroke:#5F6368;stroke-width:1.0;"/><text fill="#000000" font-family="Arial" font-size="11" lengthAdjust="spacing" textLength="91" x="500" y="222.9136">gemahlenes Pulver</text><text fill="#000000" font-family="Arial" font-size="11" lengthAdjust="spacing" textLength="85" x="503" y="235.5625">(Bestell-ID, Sorte)</text></g><!--link BS_brew to BS_milk--><g id="link_BS_brew_BS_milk"><path d="M449.78,331.8057 C442.42,350.9457 435.3,378.2257 442,401.5957 C448.75,425.1457 460.2376,443.7326 472.9076,460.4626 " fill="none" id="BS_brew-to-BS_milk" style="stroke:#5F6368;stroke-width:1.0;"/><polygon fill="#5F6368" points="476.53,465.2457,474.2852,455.6561,473.5114,461.2598,467.9077,460.4859,476.53,465.2457" style="stroke:#5F6368;stroke-width:1.0;"/><text fill="#000000" font-family="Arial" font-size="11" lengthAdjust="spacing" textLength="89" x="476.5" y="385.9136">gebruehter Kaffee</text><text fill="#000000" font-family="Arial" font-size="11" lengthAdjust="spacing" textLength="156" x="443" y="398.5625">(Bestell-ID, Milchschaum-Option)</text></g><!--link BS_milk to PC_steuer--><g id="link_BS_milk_PC_steuer"><path d="M504.79,515.7957 C510.59,532.6757 519.18,555.5057 529,574.5957 C540.64,597.2057 553.2563,616.3206 565.5363,633.5406 " fill="none" id="BS_milk-to-PC_steuer" style="stroke:#5F6368;stroke-width:1.0;"/><polygon fill="#5F6368" points="569.02,638.4257,567.0512,628.7756,566.1169,634.3548,560.5378,633.4205,569.02,638.4257" style="stroke:#5F6368;stroke-width:1.0;"/><text fill="#000000" font-family="Arial" font-size="11" lengthAdjust="spacing" textLength="86" x="530" y="558.9136">Zubereitung fertig</text><text fill="#000000" font-family="Arial" font-size="11" lengthAdjust="spacing" textLength="53" x="546.5" y="571.5625">(Bestell-ID)</text></g><!--link PC_steuer to DR_deliver--><g id="link_PC_steuer_DR_deliver"><path d="M606.97,638.2057 C627.97,613.4957 662.8,575.1057 698,547.5957 C716.23,533.3457 733.1789,523.0748 751.7689,513.1348 " fill="none" id="PC_steuer-to-DR_deliver" style="stroke:#5F6368;stroke-width:1.0;"/><polygon fill="#5F6368" points="757.06,510.3057,747.2372,511.022,752.6507,512.6633,751.0094,518.0768,757.06,510.3057" style="stroke:#5F6368;stroke-width:1.0;"/><text fill="#000000" font-family="Arial" font-size="11" lengthAdjust="spacing" textLength="48" x="731.5" y="558.9136">liefert aus</text><text fill="#000000" font-family="Arial" font-size="11" lengthAdjust="spacing" textLength="113" x="699" y="571.5625">(Bestell-ID, Zielposition)</text></g><!--link DR_deliver to PC_steuer--><g id="link_DR_deliver_PC_steuer"><path d="M811.34,515.9357 C820.92,533.5257 829,557.1557 817,574.5957 C772.53,639.2257 679.6176,655.8972 627.1676,660.4472 " fill="none" id="DR_deliver-to-PC_steuer" style="stroke:#5F6368;stroke-width:1.0;"/><polygon fill="#5F6368" points="621.19,660.9657,630.502,664.1729,626.1713,660.5336,629.8106,656.2028,621.19,660.9657" style="stroke:#5F6368;stroke-width:1.0;"/><text fill="#000000" font-family="Arial" font-size="11" lengthAdjust="spacing" textLength="139" x="824" y="558.9136">Auslieferung abgeschlossen</text><text fill="#000000" font-family="Arial" font-size="11" lengthAdjust="spacing" textLength="53" x="867" y="571.5625">(Bestell-ID)</text></g><!--link PC_steuer to OT_status--><g id="link_PC_steuer_OT_status"><path d="M552.84,658.0657 C495.96,649.3257 379.82,626.2057 296,574.5957 C271.27,559.3657 252.7498,539.2392 238.2198,520.6892 " fill="none" id="PC_steuer-to-OT_status" style="stroke:#5F6368;stroke-width:1.0;stroke-dasharray:7.0,7.0;"/><polygon fill="#5F6368" points="234.52,515.9657,236.9208,525.5175,237.6032,519.9019,243.2187,520.5843,234.52,515.9657" style="stroke:#5F6368;stroke-width:1.0;"/><text fill="#000000" font-family="Arial" font-size="11" lengthAdjust="spacing" textLength="94" x="355" y="558.9136">Status aktualisieren</text><text fill="#000000" font-family="Arial" font-size="11" lengthAdjust="spacing" textLength="210" x="297" y="571.5625">(angenommen, in Zubereitung, ausgeliefert)</text></g><!--SRC=[ZLJTRjCm5BxFKvXnGIkrKqkrCUq2QTrQWIROjCBDA8gSv3InwjZ5iHaC8I6UWokkUGlUP4_2iPCqYRi1lMhjSxwVSpxtaSuW1xBXb8cWM3EneOhc9ABnEbNIYEHKSgd8uxdxj2eIM573zLmA_PeYmebYbDz_ls2tGCPFMvSAOar5oe5y2GYP-cIpe_beFhCtKYMWgjFnoRF9x0XF6yn9yBM5IcEDTVSYelR9REGZpWuFngFHtn2LaZSEiUeuc1zE3hiQnjWHQARHp9p66MTn1WKvntluf1D6KmJAZybKmSqB4v7VF- - -_xhxzeESqzKAO3Y5GWFd6oLleIYM8WXA6tldg1xs24Ki-oq8cg7jEHEX1fKpGVbIl7C7JAJlNSF56wUvrL2n694k1GYTGWf2G9Q3g1f2J40CtQQ5fjgW91gj54sRqiATMzkjOZGGeu4mHkDAMarhPp2CEWPBWPUdli3BsZyM6r2YAWlBdnvNXBD4iqu8amAvgfCIVRhOiIypjBqKESruvMEw25ESMD8jB9Uo594oa3ML5hvR-8hnECFHc5KHPnHCtXJdZAyzmGbmzX7Kvr39I6hKMn-KWi-kVC6r3ceApc1L3-JiAgmwBS6JCXba-9nq0n5KvtXHRvOS4xS6JTfHw2saqZ0WpeqrOl81kMR0Dx9WThJzBbIvUSIoWT2a30YX4I9LiCENPtshh2l8IlG24coLMUpjffrEYg8qsKQYXJqW_rQCx1wNfVSoGte5V30WRh6LzuE6twgfiu5YR69mPbL-TfNqWsrnrMc9i365CcpuNt1fE6ximMxNK3NRxBXc5q0S7wcJq6bkkHzURBQsVO-xKoUzAmFnEWUUO00SlQFqTt1j8b30D1OHJ9zcwUwAxnboD-VUL9lm8a6PQaseyHUyiymkw7-OQX7vlaxgzsIDqIW572ANHU4jzo5_NgfxvGCOljqar2wpOThVxxwN-gMijQ6S5Go7QndnjOEGEVvv30WJxQaFx6HIgCRK3_u0]--></g></svg>